<svg xmlns="http://www.w3.org/2000/svg" width="40" height="40" viewBox="0 0 40 40" fill="none">
  <path d="M36.5625 17.1875H22.5V3.125C22.5 1.5725 21.24 0.3125 19.6875 0.3125C18.135 0.3125 16.875 1.5725 16.875 3.125V17.1875H2.8125C1.26 17.1875 0 18.4475 0 20C0 21.5525 1.26 22.8125 2.8125 22.8125H16.875V36.875C16.875 38.4275 18.135 39.6875 19.6875 39.6875C21.24 39.6875 22.5 38.4275 22.5 36.875V22.8125H36.5625C38.115 22.8125 39.375 21.5525 39.375 20C39.375 18.4475 38.115 17.1875 36.5625 17.1875Z" fill="#373737"/>
</svg>