<svg xmlns="http://www.w3.org/2000/svg" width="43" height="43" viewBox="0 0 43 43" fill="none">
  <path d="M34.0418 14.3333H16.1252C15.65 14.3333 15.1943 14.1446 14.8583 13.8086C14.5223 13.4726 14.3335 13.0168 14.3335 12.5417C14.3335 12.0665 14.5223 11.6108 14.8583 11.2748C15.1943 10.9388 15.65 10.75 16.1252 10.75H34.0418C34.517 10.75 34.9727 10.9388 35.3087 11.2748C35.6447 11.6108 35.8335 12.0665 35.8335 12.5417C35.8335 13.0168 35.6447 13.4726 35.3087 13.8086C34.9727 14.1446 34.517 14.3333 34.0418 14.3333Z" fill="#378EA2"/>
  <path d="M34.0418 23.2916H16.1252C15.65 23.2916 15.1943 23.1028 14.8583 22.7668C14.5223 22.4308 14.3335 21.9751 14.3335 21.4999C14.3335 21.0247 14.5223 20.569 14.8583 20.233C15.1943 19.897 15.65 19.7083 16.1252 19.7083H34.0418C34.517 19.7083 34.9727 19.897 35.3087 20.233C35.6447 20.569 35.8335 21.0247 35.8335 21.4999C35.8335 21.9751 35.6447 22.4308 35.3087 22.7668C34.9727 23.1028 34.517 23.2916 34.0418 23.2916Z" fill="#378EA2"/>
  <path d="M34.0418 32.2501H16.1252C15.65 32.2501 15.1943 32.0613 14.8583 31.7253C14.5223 31.3893 14.3335 30.9336 14.3335 30.4584C14.3335 29.9832 14.5223 29.5275 14.8583 29.1915C15.1943 28.8555 15.65 28.6667 16.1252 28.6667H34.0418C34.517 28.6667 34.9727 28.8555 35.3087 29.1915C35.6447 29.5275 35.8335 29.9832 35.8335 30.4584C35.8335 30.9336 35.6447 31.3893 35.3087 31.7253C34.9727 32.0613 34.517 32.2501 34.0418 32.2501Z" fill="#378EA2"/>
  <path d="M8.95817 14.3333C9.94768 14.3333 10.7498 13.5312 10.7498 12.5417C10.7498 11.5522 9.94768 10.75 8.95817 10.75C7.96866 10.75 7.1665 11.5522 7.1665 12.5417C7.1665 13.5312 7.96866 14.3333 8.95817 14.3333Z" fill="#378EA2"/>
  <path d="M8.95817 23.2916C9.94768 23.2916 10.7498 22.4894 10.7498 21.4999C10.7498 20.5104 9.94768 19.7083 8.95817 19.7083C7.96866 19.7083 7.1665 20.5104 7.1665 21.4999C7.1665 22.4894 7.96866 23.2916 8.95817 23.2916Z" fill="#378EA2"/>
  <path d="M8.95817 32.2501C9.94768 32.2501 10.7498 31.4479 10.7498 30.4584C10.7498 29.4689 9.94768 28.6667 8.95817 28.6667C7.96866 28.6667 7.1665 29.4689 7.1665 30.4584C7.1665 31.4479 7.96866 32.2501 8.95817 32.2501Z" fill="#378EA2"/>
</svg>