<svg xmlns="http://www.w3.org/2000/svg" width="38" height="30" viewBox="0 0 38 30" fill="none">
  <path d="M8.3125 1.25H15.4375V6.1C15.4375 6.4713 15.2974 6.8274 15.048 7.08995C14.7985 7.3525 14.4602 7.5 14.1075 7.5H9.6425C9.28976 7.5 8.95147 7.3525 8.70205 7.08995C8.45262 6.8274 8.3125 6.4713 8.3125 6.1V1.25Z" fill="#F5F5F5"/>
  <path d="M37.2994 16.25L35.4706 14.325L33.4638 7.9625C33.3065 7.46361 33.0038 7.02961 32.5987 6.72217C32.1937 6.41474 31.7069 6.24952 31.2075 6.25H23.75V3.75C23.75 2.75544 23.3747 1.80161 22.7066 1.09835C22.0385 0.395088 21.1323 0 20.1875 0H3.5625C2.61767 0 1.71153 0.395088 1.04343 1.09835C0.375334 1.80161 0 2.75544 0 3.75L0 22.5C0 23.4946 0.375334 24.4484 1.04343 25.1516C1.71153 25.8549 2.61767 26.25 3.5625 26.25H4.91625C5.20528 27.4283 5.89265 28.4552 6.84951 29.1382C7.80637 29.8213 8.96703 30.1135 10.1139 29.9601C11.2608 29.8068 12.3152 29.2184 13.0795 28.3053C13.8438 27.3921 14.2654 26.217 14.2654 25C14.2654 23.783 13.8438 22.6078 13.0795 21.6947C12.3152 20.7816 11.2608 20.1932 10.1139 20.0398C8.96703 19.8865 7.80637 20.1787 6.84951 20.8617C5.89265 21.5448 5.20528 22.5717 4.91625 23.75H3.5625C3.24756 23.75 2.94551 23.6183 2.72281 23.3839C2.50011 23.1495 2.375 22.8315 2.375 22.5V3.75C2.375 3.41848 2.50011 3.10054 2.72281 2.86612C2.94551 2.6317 3.24756 2.5 3.5625 2.5H20.1875C20.5024 2.5 20.8045 2.6317 21.0272 2.86612C21.2499 3.10054 21.375 3.41848 21.375 3.75V23.75H17.8125C17.4976 23.75 17.1955 23.8817 16.9728 24.1161C16.7501 24.3505 16.625 24.6685 16.625 25C16.625 25.3315 16.7501 25.6495 16.9728 25.8839C17.1955 26.1183 17.4976 26.25 17.8125 26.25H25.1037C25.3772 27.3092 25.9742 28.2443 26.8026 28.9109C27.631 29.5776 28.6448 29.9387 29.6875 29.9387C30.7302 29.9387 31.744 29.5776 32.5724 28.9109C33.4008 28.2443 33.9978 27.3092 34.2713 26.25H35.625C36.2549 26.25 36.859 25.9866 37.3044 25.5178C37.7498 25.0489 38 24.413 38 23.75V18.0125C37.9973 17.3505 37.7454 16.7167 37.2994 16.25ZM9.5 22.5C9.96973 22.5 10.4289 22.6466 10.8195 22.9213C11.21 23.196 11.5145 23.5865 11.6942 24.0433C11.874 24.5001 11.921 25.0028 11.8294 25.4877C11.7377 25.9727 11.5115 26.4181 11.1794 26.7678C10.8472 27.1174 10.424 27.3555 9.96334 27.452C9.50263 27.5484 9.0251 27.4989 8.59113 27.3097C8.15715 27.1205 7.78623 26.8 7.52526 26.3889C7.26429 25.9778 7.125 25.4944 7.125 25C7.125 24.3369 7.37522 23.7011 7.82062 23.2322C8.26602 22.7634 8.87011 22.5 9.5 22.5ZM32.7869 13.75H28.5V8.75H31.2075L32.7869 13.75ZM29.6875 27.5C29.2178 27.5 28.7586 27.3534 28.368 27.0787C27.9775 26.804 27.673 26.4135 27.4933 25.9567C27.3135 25.4999 27.2665 24.9972 27.3581 24.5123C27.4498 24.0273 27.676 23.5819 28.0081 23.2322C28.3403 22.8826 28.7635 22.6445 29.2242 22.548C29.6849 22.4516 30.1624 22.5011 30.5964 22.6903C31.0303 22.8795 31.4013 23.1999 31.6622 23.6111C31.9232 24.0222 32.0625 24.5055 32.0625 25C32.0625 25.663 31.8123 26.2989 31.3669 26.7678C30.9215 27.2366 30.3174 27.5 29.6875 27.5ZM35.625 23.75H34.2713C33.9978 22.6908 33.4008 21.7557 32.5724 21.0891C31.744 20.4224 30.7302 20.0612 29.6875 20.0612C28.6448 20.0612 27.631 20.4224 26.8026 21.0891C25.9742 21.7557 25.3772 22.6908 25.1037 23.75H23.75V8.75H26.125V15C26.125 15.3315 26.2501 15.6495 26.4728 15.8839C26.6955 16.1183 26.9976 16.25 27.3125 16.25H33.9506L35.625 18.0125V23.75Z" fill="#F5F5F5"/>
</svg>