<svg xmlns="http://www.w3.org/2000/svg" width="9" height="7" viewBox="0 0 9 7" fill="none">
    <path d="M2.48608 0.757446H3.92324V1.74877C3.92324 1.82466 3.89498 1.89744 3.84467 1.95111C3.79436 2.00477 3.72612 2.03492 3.65497 2.03492H2.75435C2.6832 2.03492 2.61497 2.00477 2.56466 1.95111C2.51435 1.89744 2.48608 1.82466 2.48608 1.74877V0.757446Z" fill="#303030"/>
    <path d="M8.33285 3.82338L7.96398 3.42992L7.55918 2.12945C7.52745 2.02748 7.46639 1.93877 7.38469 1.87594C7.30299 1.8131 7.2048 1.77933 7.10408 1.77943H5.59985V1.26844C5.59985 1.06515 5.52414 0.870195 5.38938 0.726451C5.25462 0.582707 5.07185 0.501953 4.88127 0.501953H1.5279C1.33733 0.501953 1.15455 0.582707 1.01979 0.726451C0.885033 0.870195 0.809326 1.06515 0.809326 1.26844L0.809326 5.10086C0.809326 5.30414 0.885033 5.4991 1.01979 5.64284C1.15455 5.78658 1.33733 5.86734 1.5279 5.86734H1.80096C1.85926 6.10818 1.99791 6.31808 2.19092 6.45769C2.38392 6.59729 2.61803 6.65702 2.84937 6.62568C3.08071 6.59433 3.29339 6.47407 3.44755 6.28743C3.6017 6.10079 3.68675 5.86059 3.68675 5.61184C3.68675 5.3631 3.6017 5.1229 3.44755 4.93626C3.29339 4.74962 3.08071 4.62935 2.84937 4.59801C2.61803 4.56667 2.38392 4.6264 2.19092 4.766C1.99791 4.90561 1.85926 5.11551 1.80096 5.35635H1.5279C1.46438 5.35635 1.40345 5.32943 1.35853 5.28152C1.31361 5.2336 1.28838 5.16862 1.28838 5.10086V1.26844C1.28838 1.20068 1.31361 1.13569 1.35853 1.08777C1.40345 1.03986 1.46438 1.01294 1.5279 1.01294H4.88127C4.9448 1.01294 5.00572 1.03986 5.05064 1.08777C5.09556 1.13569 5.1208 1.20068 5.1208 1.26844V5.35635H4.40222C4.33869 5.35635 4.27777 5.38327 4.23285 5.43118C4.18793 5.4791 4.16269 5.54408 4.16269 5.61184C4.16269 5.67961 4.18793 5.74459 4.23285 5.79251C4.27777 5.84042 4.33869 5.86734 4.40222 5.86734H5.87291C5.92807 6.08384 6.04848 6.27496 6.21558 6.41122C6.38267 6.54748 6.58715 6.6213 6.79748 6.6213C7.00781 6.6213 7.2123 6.54748 7.37939 6.41122C7.54648 6.27496 7.6669 6.08384 7.72205 5.86734H7.99511C8.12217 5.86734 8.24402 5.8135 8.33386 5.71767C8.42369 5.62184 8.47417 5.49187 8.47417 5.35635V4.18363C8.47363 4.04833 8.42281 3.91877 8.33285 3.82338ZM2.72554 5.10086C2.82028 5.10086 2.9129 5.13082 2.99168 5.18697C3.07046 5.24312 3.13186 5.32293 3.16812 5.4163C3.20438 5.50967 3.21387 5.61241 3.19538 5.71153C3.1769 5.81066 3.13127 5.90171 3.06428 5.97317C2.99728 6.04463 2.91192 6.0933 2.81899 6.11302C2.72607 6.13273 2.62975 6.12261 2.54221 6.08394C2.45468 6.04526 2.37986 5.97977 2.32722 5.89573C2.27458 5.8117 2.24648 5.71291 2.24648 5.61184C2.24648 5.47632 2.29696 5.34635 2.38679 5.25052C2.47663 5.15469 2.59848 5.10086 2.72554 5.10086ZM7.42265 3.31239H6.55796V2.29042H7.10408L7.42265 3.31239ZM6.79748 6.12283C6.70273 6.12283 6.61012 6.09286 6.53133 6.03672C6.45256 5.98057 6.39115 5.90076 6.3549 5.80739C6.31864 5.71402 6.30915 5.61128 6.32763 5.51216C6.34612 5.41303 6.39174 5.32198 6.45874 5.25052C6.52574 5.17906 6.6111 5.13039 6.70402 5.11067C6.79695 5.09096 6.89327 5.10108 6.98081 5.13975C7.06834 5.17843 7.14316 5.24392 7.1958 5.32795C7.24844 5.41199 7.27654 5.51078 7.27654 5.61184C7.27654 5.74737 7.22606 5.87734 7.13622 5.97317C7.04638 6.069 6.92454 6.12283 6.79748 6.12283ZM7.99511 5.35635H7.72205C7.6669 5.13985 7.54648 4.94873 7.37939 4.81247C7.2123 4.67621 7.00781 4.60239 6.79748 4.60239C6.58715 4.60239 6.38267 4.67621 6.21558 4.81247C6.04848 4.94873 5.92807 5.13985 5.87291 5.35635H5.59985V2.29042H6.0789V3.56789C6.0789 3.63565 6.10414 3.70064 6.14906 3.74855C6.19398 3.79646 6.2549 3.82338 6.31843 3.82338H7.65738L7.99511 4.18363V5.35635Z" fill="#303030"/>
</svg>