<svg xmlns="http://www.w3.org/2000/svg" width="10" height="8" viewBox="0 0 10 8" fill="none">
  <path d="M2.03271 0.354492H3.74262V1.53395C3.74262 1.62424 3.70899 1.71084 3.64913 1.77469C3.58928 1.83854 3.50809 1.87441 3.42344 1.87441H2.3519C2.26724 1.87441 2.18606 1.83854 2.1262 1.77469C2.06634 1.71084 2.03271 1.62424 2.03271 1.53395V0.354492Z" fill="#F5F5F5"/>
  <path d="M8.9892 4.00256L8.55032 3.53443L8.0687 1.98715C8.03095 1.86583 7.95831 1.76029 7.8611 1.68552C7.76389 1.61076 7.64707 1.57058 7.52723 1.5707H5.73753V0.962731C5.73753 0.720867 5.64745 0.488909 5.48712 0.317885C5.32678 0.146861 5.10932 0.0507813 4.88257 0.0507812H0.892795C0.666047 0.0507812 0.448586 0.146861 0.288252 0.317885C0.127917 0.488909 0.0378418 0.720867 0.0378418 0.962731L0.0378418 5.52248C0.0378418 5.76434 0.127917 5.9963 0.288252 6.16732C0.448586 6.33835 0.666047 6.43443 0.892795 6.43443H1.21768C1.28704 6.72098 1.452 6.97071 1.68163 7.13681C1.91127 7.30291 2.18981 7.37398 2.46505 7.33668C2.74029 7.29939 2.99334 7.15631 3.17675 6.93424C3.36016 6.71218 3.46135 6.42639 3.46135 6.13044C3.46135 5.83449 3.36016 5.5487 3.17675 5.32664C2.99334 5.10458 2.74029 4.96149 2.46505 4.9242C2.18981 4.88691 1.91127 4.95798 1.68163 5.12408C1.452 5.29018 1.28704 5.53991 1.21768 5.82646H0.892795C0.817212 5.82646 0.744725 5.79443 0.69128 5.73743C0.637835 5.68042 0.60781 5.6031 0.60781 5.52248V0.962731C0.60781 0.882109 0.637835 0.80479 0.69128 0.747782C0.744725 0.690774 0.817212 0.658747 0.892795 0.658747H4.88257C4.95816 0.658747 5.03064 0.690774 5.08409 0.747782C5.13753 0.80479 5.16756 0.882109 5.16756 0.962731V5.82646H4.31261C4.23702 5.82646 4.16454 5.85849 4.11109 5.91549C4.05765 5.9725 4.02762 6.04982 4.02762 6.13044C4.02762 6.21106 4.05765 6.28838 4.11109 6.34539C4.16454 6.4024 4.23702 6.43443 4.31261 6.43443H6.06241C6.12804 6.69201 6.2713 6.91941 6.47011 7.08153C6.66891 7.24364 6.9122 7.33148 7.16245 7.33148C7.41269 7.33148 7.65599 7.24364 7.85479 7.08153C8.05359 6.91941 8.19686 6.69201 8.26249 6.43443H8.58737C8.73853 6.43443 8.88351 6.37037 8.9904 6.25636C9.09729 6.14234 9.15734 5.9877 9.15734 5.82646V4.43118C9.1567 4.2702 9.09623 4.11605 8.9892 4.00256ZM2.31772 5.52248C2.43045 5.52248 2.54064 5.55813 2.63437 5.62494C2.7281 5.69174 2.80116 5.78669 2.8443 5.89778C2.88744 6.00888 2.89873 6.13112 2.87673 6.24905C2.85474 6.36699 2.80046 6.47531 2.72074 6.56034C2.64103 6.64537 2.53947 6.70327 2.42891 6.72673C2.31835 6.75019 2.20375 6.73815 2.0996 6.69213C1.99545 6.64612 1.90643 6.56819 1.8438 6.46821C1.78118 6.36823 1.74775 6.25069 1.74775 6.13044C1.74775 5.9692 1.8078 5.81456 1.91469 5.70055C2.02158 5.58653 2.16655 5.52248 2.31772 5.52248ZM7.90626 3.3946H6.87746V2.17866H7.52723L7.90626 3.3946ZM7.16245 6.73841C7.04972 6.73841 6.93952 6.70275 6.84579 6.63595C6.75206 6.56914 6.67901 6.47419 6.63587 6.3631C6.59273 6.25201 6.58144 6.12977 6.60343 6.01183C6.62542 5.8939 6.67971 5.78557 6.75942 5.70055C6.83913 5.61552 6.94069 5.55762 7.05125 5.53416C7.16182 5.5107 7.27642 5.52274 7.38057 5.56876C7.48471 5.61477 7.57373 5.6927 7.63636 5.79267C7.69899 5.89265 7.73242 6.0102 7.73242 6.13044C7.73242 6.29169 7.67237 6.44632 7.56548 6.56034C7.45859 6.67436 7.31361 6.73841 7.16245 6.73841ZM8.58737 5.82646H8.26249C8.19686 5.56887 8.05359 5.34148 7.85479 5.17936C7.65599 5.01724 7.41269 4.92941 7.16245 4.92941C6.9122 4.92941 6.66891 5.01724 6.47011 5.17936C6.2713 5.34148 6.12804 5.56887 6.06241 5.82646H5.73753V2.17866H6.3075V3.69858C6.3075 3.7792 6.33752 3.85652 6.39097 3.91353C6.44441 3.97053 6.5169 4.00256 6.59248 4.00256H8.18554L8.58737 4.43118V5.82646Z" fill="#F5F5F5"/>
</svg>