<svg xmlns="http://www.w3.org/2000/svg" width="64" height="30" viewBox="0 0 64 30" fill="none">
  <path d="M59.2305 5.72233C58.9679 5.34709 58.5363 5.12195 58.0861 5.12195H49.3619V1.40713C49.3619 0.637899 48.724 0 47.9547 0H16.3412C15.572 0 14.9341 0.637899 14.9341 1.40713V24.1463C14.9341 24.9156 15.572 25.5535 16.3412 25.5535H20.3187C21.0504 28.1051 23.4144 30 26.1911 30C28.9679 30 31.3318 28.1238 32.0635 25.5535H47.6545C48.3862 28.1051 50.7502 30 53.527 30C56.3037 30 58.6677 28.1238 59.3994 25.5535H62.3074C63.0767 25.5535 63.7146 24.9156 63.7146 24.1463V12.5704C63.7146 12.2702 63.6208 11.9887 63.4519 11.7636L59.2305 5.72233ZM60.9191 12.9831H54.6151V7.95497H57.3731L60.9191 12.9831ZM17.7483 2.83302H46.5476V22.758H32.1949C31.6508 19.925 29.1742 17.7861 26.1911 17.7861C23.208 17.7861 20.7127 19.925 20.1874 22.758H17.7483V2.83302ZM26.1911 27.1857C24.3712 27.1857 22.8891 25.7036 22.8891 23.8837C22.8891 22.0638 24.3712 20.5816 26.1911 20.5816C28.011 20.5816 29.4932 22.0638 29.4932 23.8837C29.4932 25.7036 28.011 27.1857 26.1911 27.1857ZM53.5457 27.1857C51.7258 27.1857 50.2436 25.7036 50.2436 23.8837C50.2436 22.0638 51.7258 20.5816 53.5457 20.5816C55.3656 20.5816 56.8478 22.0638 56.8478 23.8837C56.8478 25.7036 55.3656 27.1857 53.5457 27.1857ZM59.5495 22.758C59.0054 19.925 56.5288 17.7861 53.5457 17.7861C51.9322 17.7861 50.45 18.424 49.3619 19.4559V7.95497H51.7821V14.3902C51.7821 15.1595 52.42 15.7974 53.1892 15.7974H60.9378V22.758H59.5495Z" fill="#F5F5F5"/>
  <path d="M1.40713 2.83379H11.4447C12.2139 2.83379 12.8518 2.19589 12.8518 1.42666C12.8518 0.65743 12.2139 0.0195312 11.4447 0.0195312H1.40713C0.637899 0.0195312 0 0.65743 0 1.42666C0 2.19589 0.637899 2.83379 1.40713 2.83379Z" fill="#F5F5F5"/>
  <path d="M11.4451 5.14062H3.71524C2.946 5.14062 2.30811 5.77852 2.30811 6.54775C2.30811 7.31699 2.946 7.95488 3.71524 7.95488H11.4451C12.2143 7.95488 12.8522 7.31699 12.8522 6.54775C12.8522 5.77852 12.2331 5.14062 11.4451 5.14062Z" fill="#F5F5F5"/>
  <path d="M11.4448 10.2627H6.5668C5.79757 10.2627 5.15967 10.9006 5.15967 11.6698C5.15967 12.4391 5.79757 13.077 6.5668 13.077H11.4448C12.2141 13.077 12.852 12.4391 12.852 11.6698C12.852 10.9006 12.2328 10.2627 11.4448 10.2627Z" fill="#F5F5F5"/>
  <path d="M11.4448 15.3848H9.75625C8.98702 15.3848 8.34912 16.0227 8.34912 16.7919C8.34912 17.5611 8.98702 18.199 9.75625 18.199H11.4448C12.214 18.199 12.8519 17.5611 12.8519 16.7919C12.8519 16.0227 12.2328 15.3848 11.4448 15.3848Z" fill="#F5F5F5"/>
</svg>