<svg xmlns="http://www.w3.org/2000/svg" width="19" height="19" viewBox="0 0 19 19" fill="none">
    <g clip-path="url(#clip0_89_20847)">
    <path d="M18.9401 9.52744C18.9401 4.29726 14.7002 0.057373 9.47007 0.057373C4.23989 0.057373 0 4.29726 0 9.52744C0 14.2542 3.46308 18.172 7.99037 18.8825V12.2649H5.58586V9.52744H7.99037V7.44106C7.99037 5.06763 9.40418 3.75662 11.5674 3.75662C12.6035 3.75662 13.6872 3.94158 13.6872 3.94158V6.2721H12.4931C11.3167 6.2721 10.9498 7.00207 10.9498 7.75099V9.52744H13.5762L13.1564 12.2649H10.9498V18.8825C15.4771 18.172 18.9401 14.2542 18.9401 9.52744Z" fill="#F5F5F5"/>
    </g>
    <defs>
    <clipPath id="clip0_89_20847">
        <rect width="18.9401" height="18.9401" fill="white"/>
    </clipPath>
    </defs>
</svg>