<svg xmlns="http://www.w3.org/2000/svg" width="30" height="30" viewBox="0 0 30 30" fill="none">
    <path d="M15.1674 4.25452C9.18449 4.25452 4.32227 9.11675 4.32227 15.0996C4.32227 21.0825 9.18449 25.9448 15.1674 25.9448C21.1503 25.9448 26.0125 21.0825 26.0125 15.0996C26.0125 9.11675 21.1503 4.25452 15.1674 4.25452ZM15.1674 24.1372C10.1786 24.1372 6.12979 20.0884 6.12979 15.0996C6.12979 10.1109 10.1786 6.06204 15.1674 6.06204C20.1561 6.06204 24.205 10.1109 24.205 15.0996C24.205 20.0884 20.1561 24.1372 15.1674 24.1372Z" fill="#F5F5F5"/>
    <path d="M15.9446 8.86374C14.2094 8.42994 12.2753 9.53252 11.7512 11.2316C11.5885 11.7196 11.8596 12.2257 12.3296 12.3703C12.7995 12.5149 13.3056 12.2619 13.4683 11.7738C13.7214 10.9785 14.6974 10.4182 15.5289 10.617C16.3423 10.8159 16.9568 11.7738 16.7941 12.6053C16.6495 13.4368 15.7639 14.1055 14.9143 13.9971C14.6613 13.9609 14.3901 14.0513 14.2094 14.214C14.0106 14.3948 13.9021 14.6297 13.9021 14.9009L13.884 17.7206C13.884 18.2267 14.2817 18.6243 14.7878 18.6243C15.2939 18.6243 15.6916 18.2267 15.6916 17.7206L15.7096 15.7504C17.1014 15.4793 18.3305 14.3405 18.5836 12.9126C18.9089 11.1593 17.6979 9.29754 15.9446 8.86374Z" fill="#F5F5F5"/>
    <path d="M14.8239 19.4196H14.8059C14.3178 19.4196 13.9202 19.8353 13.9021 20.3233C13.9021 20.3414 13.9021 20.5041 13.9021 20.5221C13.9021 21.0102 14.2998 21.3355 14.7878 21.3536H14.8059C15.2939 21.3536 15.6915 20.9017 15.7096 20.4137C15.7096 20.3956 15.7096 20.2872 15.7096 20.2691C15.6915 19.7811 15.312 19.4196 14.8239 19.4196Z" fill="#F5F5F5"/>
</svg>