<svg xmlns="http://www.w3.org/2000/svg" width="29" height="28" viewBox="0 0 29 28" fill="none">
    <g clip-path="url(#clip0_193_111)">
        <path d="M14.5215 23.5439C14.5215 23.5439 3.78931 17.5339 3.78931 10.236C3.78931 8.94587 4.23629 7.6956 5.05422 6.69789C5.87215 5.70018 7.01048 5.01667 8.27556 4.76366C9.54063 4.51064 10.8543 4.70375 11.993 5.31012C13.1318 5.9165 14.0253 6.89868 14.5215 8.08957C15.0177 6.89868 15.9111 5.9165 17.0499 5.31012C18.1886 4.70375 19.5023 4.51064 20.7674 4.76366C22.0324 5.01667 23.1708 5.70018 23.9887 6.69789C24.8066 7.6956 25.2536 8.94587 25.2536 10.236C25.2536 17.5339 14.5215 23.5439 14.5215 23.5439Z" stroke="#F5F5F5" stroke-width="1.8876" stroke-linecap="round" stroke-linejoin="round"/>
    </g>
    <defs>
        <clipPath id="clip0_193_111">
        <rect width="27.4743" height="27.4743" fill="white" transform="translate(0.784302 0.362305)"/>
        </clipPath>
    </defs>
</svg>