<svg xmlns="http://www.w3.org/2000/svg" width="32" height="32" viewBox="0 0 32 32" fill="none">
  <path d="M13.1252 16.0007L23.2819 7.53741C23.6873 7.19689 23.9412 6.7096 23.9881 6.18225C24.035 5.65489 23.871 5.13045 23.532 4.72377C23.193 4.31709 22.7067 4.06131 22.1795 4.01245C21.6523 3.96359 21.1273 4.12563 20.7193 4.46308L8.7188 14.4635C8.49378 14.6515 8.31278 14.8866 8.18858 15.1523C8.06437 15.4179 8 15.7075 8 16.0007C8 16.2939 8.06437 16.5836 8.18858 16.8492C8.31278 17.1148 8.49378 17.3499 8.7188 17.5379L20.7193 27.5383C21.1271 27.8774 21.6528 28.0408 22.1809 27.9925C22.709 27.9442 23.1964 27.6883 23.5359 27.2809C23.8755 26.8736 24.0395 26.3481 23.9918 25.8199C23.9442 25.2917 23.6889 24.804 23.2819 24.464L13.1252 16.0007Z" fill="#378EA2"/>
</svg>