<svg xmlns="http://www.w3.org/2000/svg" width="55" height="55" viewBox="0 0 55 55" fill="none">
  <path d="M36.5234 22.7734C38.4219 22.7734 39.9609 21.2344 39.9609 19.3359C39.9609 17.4375 38.4219 15.8984 36.5234 15.8984C34.625 15.8984 33.0859 17.4375 33.0859 19.3359C33.0859 21.2344 34.625 22.7734 36.5234 22.7734Z" stroke="#F5F5F5" stroke-width="4" stroke-miterlimit="10" stroke-linecap="round" stroke-linejoin="round"/>
  <path d="M44.1065 28.0351L26.8132 45.2725C25.4701 46.6112 23.2966 46.6095 21.9557 45.2686L10.4448 33.7576C9.10035 32.4132 9.10268 30.2327 10.45 28.8911L27.6707 11.7438C28.315 11.1023 29.1871 10.7422 30.0962 10.7422H41.6798C43.5782 10.7422 45.1173 12.2812 45.1173 14.1797V25.6005C45.1173 26.5141 44.7536 27.3901 44.1065 28.0351Z" stroke="#F5F5F5" stroke-width="4" stroke-miterlimit="10" stroke-linecap="round" stroke-linejoin="round"/>
</svg>