<svg xmlns="http://www.w3.org/2000/svg" width="18" height="24" viewBox="0 0 18 24" fill="none">
  <g clip-path="url(#clip0_95_4895)">
    <path d="M1.13701 9.94514H2.61879V6.41561C2.61879 2.89138 5.48234 0.0241699 9.00538 0.0241699C12.5284 0.0241699 15.3919 2.89326 15.3919 6.41978V9.94514H16.8573C17.365 9.94514 17.7852 10.3484 17.7852 10.8561V21.5202C17.7852 22.7875 16.7456 23.8175 15.4783 23.8175H2.51598C1.24869 23.8175 0.225571 22.7875 0.225571 21.5202V10.8561C0.225571 10.3484 0.629288 9.94514 1.13701 9.94514ZM13.5553 6.41978C13.5553 3.90706 11.5146 1.86281 9.00538 1.86281C6.49617 1.86281 4.45545 3.90517 4.45545 6.41561V9.94514H13.5553V6.41978ZM2.06223 21.5202C2.06223 21.7737 2.26252 21.9808 2.51598 21.9808H15.4783C15.7318 21.9808 15.9485 21.7737 15.9485 21.5202V11.7818H2.06223V21.5202Z" fill="#373737"/>
    <path d="M9.00501 19.6364C8.49727 19.6364 8.08668 19.2248 8.08668 18.7171V15.4076C8.08668 14.8999 8.49728 14.4883 9.00501 14.4883C9.51274 14.4883 9.92334 14.8999 9.92334 15.4076V18.7171C9.92334 19.2248 9.51275 19.6364 9.00501 19.6364Z" fill="#373737"/>
  </g>
  <defs>
    <clipPath id="clip0_95_4895">
      <rect width="17.5596" height="23.7967" fill="white" transform="matrix(-1 0 0 1 17.7852 0.020752)"/>
    </clipPath>
  </defs>
</svg>