<svg xmlns="http://www.w3.org/2000/svg" width="26" height="26" viewBox="0 0 26 26" fill="none">
    <path d="M12.5715 13.0093C13.635 13.0093 14.6747 12.6939 15.559 12.103C16.4433 11.5121 17.1325 10.6723 17.5395 9.68972C17.9465 8.70714 18.053 7.62593 17.8455 6.58282C17.638 5.53971 17.1259 4.58155 16.3738 3.82951C15.6218 3.07748 14.6636 2.56533 13.6205 2.35784C12.5774 2.15036 11.4962 2.25685 10.5136 2.66385C9.53105 3.07085 8.69122 3.76008 8.10034 4.64438C7.50947 5.52869 7.19409 6.56835 7.19409 7.63189C7.19409 9.05806 7.76064 10.4258 8.76909 11.4343C9.77754 12.4427 11.1453 13.0093 12.5715 13.0093ZM12.5715 3.79091C13.3311 3.79091 14.0738 4.01618 14.7054 4.43823C15.337 4.86029 15.8294 5.46016 16.1201 6.16201C16.4108 6.86386 16.4868 7.63615 16.3386 8.38123C16.1904 9.12631 15.8246 9.8107 15.2874 10.3479C14.7503 10.885 14.0659 11.2509 13.3208 11.3991C12.5757 11.5473 11.8034 11.4712 11.1016 11.1805C10.3997 10.8898 9.79986 10.3975 9.37781 9.76583C8.95575 9.13418 8.73048 8.39157 8.73048 7.63189C8.73048 6.6132 9.13516 5.63623 9.85548 4.91591C10.5758 4.19558 11.5528 3.79091 12.5715 3.79091Z" fill="#F5F5F5"/>
    <path d="M13.3396 14.5457H11.8032C9.56206 14.5457 7.41273 15.4359 5.82802 17.0206C4.24331 18.6054 3.35303 20.7547 3.35303 22.9958C3.35303 23.1995 3.43396 23.3949 3.57803 23.539C3.72209 23.6831 3.91749 23.764 4.12122 23.764H21.0215C21.2253 23.764 21.4207 23.6831 21.5647 23.539C21.7088 23.3949 21.7897 23.1995 21.7897 22.9958C21.7897 20.7547 20.8995 18.6054 19.3147 17.0206C17.73 15.4359 15.5807 14.5457 13.3396 14.5457ZM4.93551 22.2276C5.12441 20.5381 5.92918 18.9774 7.19607 17.8437C8.46295 16.71 10.1031 16.0829 11.8032 16.082H13.3396C15.0396 16.0829 16.6798 16.71 17.9467 17.8437C19.2136 18.9774 20.0184 20.5381 20.2072 22.2276H4.93551Z" fill="#F5F5F5"/>
</svg>