<svg width="103" height="103" viewBox="0 0 103 103" fill="none" xmlns="http://www.w3.org/2000/svg">
<path fill-rule="evenodd" clip-rule="evenodd" d="M51.5001 4.58325C49.293 4.58325 47.1248 5.16332 45.2127 6.26525L45.204 6.27029L31.4558 14.1264C30.5822 14.289 29.7667 14.7396 29.1614 15.4374L15.1778 23.4281L15.1623 23.437C13.6024 24.3375 12.2581 25.5598 11.2158 27.0173C10.9673 27.2631 10.7471 27.5456 10.5637 27.8627C10.4052 28.1368 10.2827 28.4218 10.1948 28.7123C9.32458 30.4534 8.86822 32.3759 8.86621 34.3292L8.86621 34.3333V68.6667L8.86621 68.6708C8.86848 70.879 9.45139 73.0478 10.5565 74.9595C11.6616 76.8713 13.25 78.4589 15.1623 79.563L15.1778 79.5719L45.204 96.7297L45.2122 96.7345C46.5577 97.5099 48.03 98.027 49.5534 98.2654C50.1298 98.5861 50.7936 98.7689 51.5 98.7689C52.2065 98.7689 52.8702 98.5861 53.4466 98.2654C54.9701 98.027 56.4424 97.5099 57.7879 96.7345L57.7962 96.7297L87.8224 79.5719L87.8378 79.563C89.7502 78.4589 91.3386 76.8713 92.4437 74.9595C93.5488 73.0478 94.1317 70.879 94.1339 68.6708V68.6667V34.3333V34.3292C94.1319 32.3758 93.6755 30.4532 92.8052 28.7121C92.7174 28.4217 92.5949 28.1367 92.4364 27.8627C92.253 27.5457 92.0329 27.2632 91.7845 27.0175C90.7421 25.5599 89.3978 24.3376 87.8378 23.437L87.8224 23.4281L57.7962 6.27029L57.7874 6.26525C55.8753 5.16332 53.7071 4.58325 51.5001 4.58325ZM55.5089 88.8023L83.829 72.6194L83.8356 72.6156C84.5274 72.2147 85.102 71.6394 85.5022 70.9471C85.9036 70.2526 86.1154 69.4647 86.1162 68.6625V36.15L55.5089 53.8553V88.8023ZM47.4911 53.8552L16.884 36.15V68.6641C16.8851 69.4658 17.0968 70.2531 17.498 70.9471C17.8982 71.6395 18.4729 72.2148 19.1648 72.6158L19.1712 72.6194L47.4911 88.8022V53.8552ZM53.8028 13.2228L81.9418 29.3022L70.835 35.7271L40.4641 18.2132L49.1974 13.2228L49.2129 13.2139C49.9083 12.8124 50.6971 12.601 51.5001 12.601C52.3031 12.601 53.0919 12.8124 53.7873 13.2139L53.8028 13.2228ZM51.5001 46.9117L62.8227 40.3619L32.4026 22.8197L21.0583 29.3022L51.5001 46.9117Z" fill="#64C0D5"/>
</svg>
