<svg xmlns="http://www.w3.org/2000/svg" width="23" height="26" viewBox="0 0 23 26" fill="none">
    <g clip-path="url(#clip0_193_114)">
        <path d="M13.2227 2.34486V3.20332C16.7036 3.75594 19.3682 6.77159 19.3682 10.4109V12.0145C19.3682 14.1943 20.1124 16.3116 21.4712 18.0161L22.1866 18.9091C22.465 19.2548 22.5178 19.7301 22.3258 20.1286C22.1337 20.5271 21.7304 20.7816 21.2887 20.7816H2.08382C1.64067 20.7816 1.23713 20.5271 1.04527 20.1286C0.853363 19.7301 0.907329 19.2548 1.18407 18.9091L1.89993 18.0161C3.26204 16.3116 4.00431 14.1943 4.00431 12.0145V10.4109C4.00431 6.77159 6.66899 3.75594 10.1499 3.20332V2.34486C10.1499 1.49649 10.8365 0.808472 11.6863 0.808472C12.5361 0.808472 13.2227 1.49649 13.2227 2.34486ZM11.3022 5.41765C8.54627 5.41765 6.3089 7.65502 6.3089 10.4109V12.0145C6.3089 14.3143 5.64249 16.5565 4.40329 18.477H18.9697C17.731 16.5565 17.0636 14.3143 17.0636 12.0145V10.4109C17.0636 7.65502 14.8263 5.41765 12.0704 5.41765H11.3022ZM14.7591 22.318C14.7591 23.091 14.4374 23.9168 13.8612 24.4929C13.2851 25.0691 12.4593 25.3907 11.6863 25.3907C10.8701 25.3907 10.0875 25.0691 9.51132 24.4929C8.93517 23.9168 8.61349 23.091 8.61349 22.318H14.7591Z" fill="#F5F5F5"/>
    </g>
    <defs>
        <clipPath id="clip0_193_114">
        <rect width="21.5095" height="24.5823" fill="white" transform="translate(0.931519 0.808472)"/>
        </clipPath>
    </defs>
</svg>