<svg xmlns="http://www.w3.org/2000/svg" width="24" height="24" viewBox="0 0 24 24" fill="none">
    <path fill-rule="evenodd" clip-rule="evenodd" d="M11.7672 1.49133C11.2601 1.49133 10.7618 1.62462 10.3224 1.87782L7.23983 3.63932C7.03717 3.67942 6.84812 3.78411 6.70578 3.94449L3.57215 5.73514L3.57215 5.73513L3.56843 5.73728C3.21155 5.94332 2.90377 6.22263 2.66469 6.55562C2.60648 6.61384 2.55482 6.68054 2.51164 6.75519C2.47444 6.8195 2.44549 6.88631 2.42447 6.95441C2.22607 7.35322 2.12204 7.79326 2.12158 8.24032L2.12158 8.24131V15.9578L2.12158 15.9588C2.1221 16.4663 2.25606 16.9647 2.51001 17.404C2.76395 17.8433 3.12897 18.2081 3.56843 18.4619L3.57215 18.464L10.3204 22.3201L10.3222 22.3212C10.6282 22.4975 10.9627 22.6157 11.3088 22.6713C11.4452 22.7451 11.6013 22.787 11.7672 22.787C11.9332 22.787 12.0893 22.7451 12.2256 22.6713C12.5718 22.6157 12.9063 22.4975 13.2122 22.3212L13.2141 22.3201L19.9623 18.464L19.966 18.4619C20.4055 18.2081 20.7705 17.8433 21.0245 17.404C21.2784 16.9647 21.4124 16.4663 21.4129 15.9588L21.4129 15.9578V8.24131L21.4129 8.24032C21.4124 7.79324 21.3084 7.35319 21.11 6.95436C21.0889 6.88628 21.06 6.81948 21.0228 6.75519C20.9796 6.68055 20.928 6.61387 20.8698 6.55565C20.6307 6.22265 20.3229 5.94332 19.966 5.73727L19.9623 5.73514L13.2141 1.87901L13.212 1.87782C12.7726 1.62462 12.2744 1.49133 11.7672 1.49133ZM12.7318 20.3738L19.0015 16.7912L19.003 16.7903C19.1488 16.7058 19.2699 16.5845 19.3543 16.4386C19.4389 16.2921 19.4836 16.126 19.4838 15.9568V8.75981L12.7318 12.6656V20.3738ZM10.8027 12.6656L4.05071 8.75981V15.9573C4.05096 16.1263 4.09561 16.2922 4.18019 16.4386C4.26453 16.5845 4.38564 16.7057 4.53143 16.7903L4.53299 16.7912L10.8027 20.3739V12.6656ZM12.2532 3.55183L18.4816 7.11088L16.1128 8.48116L9.41454 4.6185L11.2812 3.55183L11.2812 3.55184L11.285 3.54969C11.4316 3.46503 11.5979 3.42046 11.7672 3.42046C11.9365 3.42046 12.1029 3.46503 12.2495 3.54969L12.2495 3.5497L12.2532 3.55183ZM11.7672 10.9949L14.1849 9.59634L7.47488 5.72688L5.05287 7.11088L11.7672 10.9949Z" fill="#F5F5F5"/>
</svg>