<svg xmlns="http://www.w3.org/2000/svg" width="58" height="43" viewBox="0 0 58 43" fill="none">
  <path d="M12.675 1.7771H23.337V8.67181C23.337 9.19965 23.1273 9.70587 22.754 10.0791C22.3808 10.4524 21.8746 10.662 21.3467 10.662H14.6653C14.1374 10.662 13.6312 10.4524 13.258 10.0791C12.8847 9.70587 12.675 9.19965 12.675 8.67181V1.7771Z" fill="#388D9F"/>
  <path d="M56.0513 23.1008L53.3147 20.3643L50.3116 11.3194C50.0762 10.6102 49.6233 9.99322 49.0171 9.55618C48.411 9.11913 47.6826 8.88426 46.9353 8.88494H35.7758V5.33096C35.7758 3.9171 35.2142 2.56115 34.2144 1.5614C33.2147 0.561653 31.8587 0 30.4449 0H5.56705C4.15319 0 2.79724 0.561653 1.79749 1.5614C0.797737 2.56115 0.236084 3.9171 0.236084 5.33096L0.236084 31.9858C0.236084 33.3996 0.797737 34.7556 1.79749 35.7553C2.79724 36.7551 4.15319 37.3167 5.56705 37.3167H7.59281C8.02532 38.9918 9.0539 40.4517 10.4858 41.4226C11.9176 42.3936 13.6544 42.809 15.3707 42.591C17.0869 42.3731 18.6647 41.5366 19.8084 40.2385C20.952 38.9404 21.583 37.2698 21.583 35.5397C21.583 33.8097 20.952 32.1391 19.8084 30.841C18.6647 29.5429 17.0869 28.7064 15.3707 28.4884C13.6544 28.2705 11.9176 28.6859 10.4858 29.6568C9.0539 30.6278 8.02532 32.0877 7.59281 33.7628H5.56705C5.09576 33.7628 4.64378 33.5755 4.31053 33.2423C3.97728 32.909 3.79006 32.4571 3.79006 31.9858V5.33096C3.79006 4.85968 3.97728 4.40769 4.31053 4.07444C4.64378 3.74119 5.09576 3.55397 5.56705 3.55397H30.4449C30.9162 3.55397 31.3681 3.74119 31.7014 4.07444C32.0346 4.40769 32.2219 4.85968 32.2219 5.33096V33.7628H26.8909C26.4196 33.7628 25.9676 33.95 25.6344 34.2832C25.3011 34.6165 25.1139 35.0685 25.1139 35.5397C25.1139 36.011 25.3011 36.463 25.6344 36.7963C25.9676 37.1295 26.4196 37.3167 26.8909 37.3167H37.8016C38.2108 38.8225 39.1041 40.1518 40.3437 41.0995C41.5834 42.0472 43.1004 42.5606 44.6608 42.5606C46.2211 42.5606 47.7382 42.0472 48.9778 41.0995C50.2174 40.1518 51.1107 38.8225 51.5199 37.3167H53.5457C54.4883 37.3167 55.3922 36.9423 56.0587 36.2758C56.7252 35.6093 57.0997 34.7053 57.0997 33.7628V25.6064C57.0957 24.6653 56.7187 23.7643 56.0513 23.1008ZM14.452 31.9858C15.1549 31.9858 15.842 32.1942 16.4265 32.5847C17.0109 32.9752 17.4664 33.5303 17.7354 34.1797C18.0044 34.8291 18.0748 35.5437 17.9377 36.2331C17.8005 36.9225 17.4621 37.5558 16.965 38.0528C16.468 38.5498 15.8347 38.8883 15.1453 39.0254C14.4559 39.1626 13.7413 39.0922 13.0919 38.8232C12.4425 38.5542 11.8875 38.0987 11.497 37.5142C11.1064 36.9298 10.898 36.2427 10.898 35.5397C10.898 34.5972 11.2724 33.6932 11.9389 33.0267C12.6054 32.3602 13.5094 31.9858 14.452 31.9858ZM49.2987 19.5469H42.8838V12.4389H46.9353L49.2987 19.5469ZM44.6608 39.0937C43.9579 39.0937 43.2707 38.8853 42.6863 38.4948C42.1018 38.1042 41.6463 37.5492 41.3773 36.8998C41.1083 36.2504 41.0379 35.5358 41.1751 34.8464C41.3122 34.157 41.6507 33.5237 42.1477 33.0267C42.6448 32.5297 43.278 32.1912 43.9674 32.0541C44.6568 31.9169 45.3714 31.9873 46.0208 32.2563C46.6702 32.5253 47.2253 32.9808 47.6158 33.5653C48.0063 34.1497 48.2147 34.8368 48.2147 35.5397C48.2147 36.4823 47.8403 37.3863 47.1738 38.0528C46.5073 38.7193 45.6033 39.0937 44.6608 39.0937ZM53.5457 33.7628H51.5199C51.1107 32.257 50.2174 30.9277 48.9778 29.98C47.7382 29.0323 46.2211 28.5189 44.6608 28.5189C43.1004 28.5189 41.5834 29.0323 40.3437 29.98C39.1041 30.9277 38.2108 32.257 37.8016 33.7628H35.7758V12.4389H39.3298V21.3238C39.3298 21.7951 39.517 22.2471 39.8503 22.5804C40.1835 22.9136 40.6355 23.1008 41.1068 23.1008H51.0401L53.5457 25.6064V33.7628Z" fill="#388D9F"/>
</svg>