<svg xmlns="http://www.w3.org/2000/svg" width="49" height="49" viewBox="0 0 49 49" fill="none">
  <path fill-rule="evenodd" clip-rule="evenodd" d="M25.5736 2.57959C24.5002 2.57959 23.4455 2.86173 22.5155 3.39768L15.9931 7.12476C15.5628 7.20948 15.1614 7.43172 14.8595 7.77251L8.22737 11.5623L8.22736 11.5623L8.21948 11.5668C7.46392 12.0031 6.81232 12.5945 6.30622 13.2995C6.18341 13.4225 6.0744 13.5634 5.98324 13.721C5.90487 13.8564 5.84381 13.9972 5.79936 14.1406C5.37858 14.9854 5.15796 15.9177 5.15698 16.865L5.15698 16.8671V33.2004L5.15698 33.2025C5.15809 34.2766 5.44162 35.3315 5.97915 36.2614C6.51667 37.1913 7.28929 37.9636 8.21948 38.5006L8.22737 38.5051L22.5111 46.6673L22.5155 46.6698C23.1631 47.043 23.8711 47.2931 24.6039 47.4106C24.8925 47.5668 25.223 47.6555 25.5741 47.6555C25.9255 47.6555 26.2561 47.5667 26.5448 47.4104C27.2771 47.2928 27.9846 47.0428 28.6318 46.6698L28.6361 46.6673L42.9199 38.5051L42.9278 38.5006C43.858 37.9636 44.6306 37.1913 45.1682 36.2614C45.7057 35.3315 45.9892 34.2766 45.9903 33.2025V33.2004V16.8671V16.865C45.9893 15.9202 45.7699 14.9902 45.3512 14.1472C45.3066 14.0014 45.2449 13.8585 45.1653 13.721C45.0731 13.5615 44.9625 13.4192 44.8379 13.2951C44.3323 12.592 43.6818 12.0022 42.9278 11.5668L42.9199 11.5623L28.6361 3.40018L28.6318 3.39768C27.7017 2.86173 26.6471 2.57959 25.5736 2.57959ZM27.6158 42.5474L40.8862 34.9643L40.8896 34.9624C41.1981 34.7834 41.4544 34.5268 41.6329 34.2179C41.8121 33.908 41.9066 33.5563 41.907 33.1983V17.9644L27.6158 26.2314V42.5474ZM23.5325 26.2312L9.24032 17.9637V33.1993C9.24085 33.557 9.33535 33.9082 9.51437 34.2179C9.6929 34.5268 9.94923 34.7835 10.2578 34.9624L10.2611 34.9643L23.5325 42.5479V26.2312ZM26.6024 6.94098L39.7856 14.4743L34.7728 17.374L20.595 9.1981L24.5449 6.94098L24.5449 6.941L24.5528 6.93645C24.8632 6.75726 25.2153 6.66292 25.5736 6.66292C25.932 6.66292 26.2841 6.75726 26.5945 6.93645L26.5945 6.93647L26.6024 6.94098ZM25.5743 22.695L30.6922 19.7345L16.4894 11.5442L11.3623 14.4739L25.5743 22.695Z" fill="#388D9F"/>
</svg>