<svg xmlns="http://www.w3.org/2000/svg" width="55" height="55" viewBox="0 0 55 55" fill="none">
    <path fill-rule="evenodd" clip-rule="evenodd" d="M27.5 2.073C26.2561 2.073 25.034 2.39988 23.9562 3.02086L23.9508 3.02402L16.6639 7.18794C16.1609 7.29519 15.6921 7.55549 15.3326 7.94868L7.91882 12.1851L7.91881 12.1851L7.90911 12.1907C7.03887 12.6931 6.28763 13.3731 5.70266 14.1836C5.55623 14.3322 5.42605 14.5017 5.3167 14.6907C5.22296 14.8528 5.14932 15.0209 5.09501 15.1923C4.61342 16.1664 4.36098 17.2401 4.35986 18.3309L4.35986 18.3335V36.6668L4.35986 36.6694C4.36114 37.9142 4.68974 39.1368 5.3127 40.2145C5.93566 41.2922 6.83107 42.1872 7.90911 42.8096L7.91882 42.8151L23.9508 51.9762L23.9561 51.9793C24.6955 52.4053 25.5029 52.693 26.3386 52.8316C26.6861 53.0128 27.0811 53.1152 27.5 53.1152C27.919 53.1152 28.314 53.0128 28.6614 52.8316C29.4972 52.693 30.3047 52.4053 31.0442 51.9792L31.0493 51.9762L47.0812 42.8151L47.0909 42.8096C48.169 42.1872 49.0644 41.2922 49.6873 40.2145C50.3103 39.1368 50.6389 37.9142 50.6402 36.6694V36.6668L50.6402 18.3335L50.6402 18.3309C50.6391 17.2404 50.3867 16.167 49.9054 15.1931C49.8511 15.0214 49.7774 14.853 49.6835 14.6907C49.574 14.5015 49.4437 14.3319 49.297 14.1831C48.7121 13.3729 47.961 12.693 47.0909 12.1907L47.0812 12.1851L31.0493 3.02402L31.044 3.02099C29.9662 2.39993 28.744 2.073 27.5 2.073ZM30.0152 46.7735L44.5758 38.4532L44.5795 38.451C44.8919 38.2698 45.1515 38.0098 45.3322 37.6971C45.5138 37.3831 45.6095 37.0269 45.6099 36.6642V19.9528L30.0152 28.9738V46.7735ZM24.9849 28.9737L9.39018 19.9528V36.6653C9.39074 37.0276 9.48647 37.3834 9.66779 37.6971C9.84854 38.0098 10.108 38.2697 10.4204 38.4509L10.4243 38.4532L24.9849 46.7735V28.9737ZM28.5438 7.38597L43.004 15.6489L37.8244 18.6451L22.3594 9.72701L26.4562 7.38597L26.4562 7.38599L26.4659 7.38039C26.7803 7.19887 27.137 7.10331 27.5 7.10331C27.8631 7.10331 28.2197 7.19887 28.5341 7.38039L28.5341 7.38042L28.5438 7.38597ZM27.5001 24.6174L32.7974 21.5531L17.3016 12.6171L11.9961 15.6489L27.5001 24.6174Z" fill="#F5F5F5"/>
</svg>