<svg xmlns="http://www.w3.org/2000/svg" width="25" height="25" viewBox="0 0 25 25" fill="none">
  <path d="M2.31208 2.31207C2.03471 2.58944 2.0095 3.02346 2.23643 3.3293L2.31208 3.41693L6.51475 7.6196C4.51268 9.0253 3.01635 11.1248 2.39459 13.6087C2.28981 14.0272 2.54419 14.4515 2.96274 14.5563C3.3813 14.661 3.80554 14.4067 3.91033 13.988C4.46186 11.7848 5.824 9.93686 7.63967 8.74421L9.5247 10.6294C8.78771 11.381 8.33325 12.4106 8.33325 13.5464C8.33325 15.8476 10.1987 17.713 12.4999 17.713C13.6358 17.713 14.6653 17.2586 15.417 16.5216L21.5829 22.6877C21.888 22.9928 22.3826 22.9928 22.6877 22.6877C22.9651 22.4104 22.9903 21.9764 22.7634 21.6705L22.6877 21.5829L16.3195 15.214L16.3208 15.2124L15.0706 13.9646L12.0812 10.9757L12.0833 10.9749L9.08197 7.97681L9.08325 7.97492L7.90275 6.7973L3.41693 2.31207C3.11184 2.00698 2.61717 2.00698 2.31208 2.31207ZM10.6292 11.7348L14.3116 15.4172C13.8428 15.8712 13.204 16.1505 12.4999 16.1505C11.0617 16.1505 9.89575 14.9846 9.89575 13.5464C9.89575 12.8423 10.1752 12.2035 10.6292 11.7348ZM12.4999 5.72908C11.4579 5.72908 10.4469 5.88332 9.49064 6.17179L10.7792 7.45949C11.3373 7.34921 11.9128 7.29158 12.4999 7.29158C16.5865 7.29158 20.1144 10.0835 21.0906 13.9928C21.1952 14.4114 21.6193 14.666 22.0379 14.5615C22.4566 14.4569 22.7112 14.0328 22.6066 13.6142C21.4576 9.01317 17.3077 5.72908 12.4999 5.72908ZM12.7027 9.38458L16.6624 13.3437C16.5564 11.2011 14.8408 9.48704 12.7027 9.38458Z" fill="#373737"/>
</svg>