<svg xmlns="http://www.w3.org/2000/svg" width="25" height="25" viewBox="0 0 25 25" fill="none">
  <path d="M12.5001 9.37989C14.8012 9.37989 16.6667 11.2454 16.6667 13.5465C16.6667 15.8478 14.8012 17.7132 12.5001 17.7132C10.1989 17.7132 8.33339 15.8478 8.33339 13.5465C8.33339 11.2454 10.1989 9.37989 12.5001 9.37989ZM12.5001 10.9424C11.0618 10.9424 9.89589 12.1083 9.89589 13.5465C9.89589 14.9848 11.0618 16.1507 12.5001 16.1507C13.9383 16.1507 15.1042 14.9848 15.1042 13.5465C15.1042 12.1083 13.9383 10.9424 12.5001 10.9424ZM12.5001 5.72925C17.3058 5.72925 21.4543 9.01051 22.6054 13.6088C22.7102 14.0274 22.4558 14.4516 22.0372 14.5564C21.6187 14.6611 21.1944 14.4069 21.0896 13.9882C20.1116 10.0813 16.5848 7.29175 12.5001 7.29175C8.41352 7.29175 4.88557 10.0837 3.90927 13.993C3.80473 14.4115 3.38063 14.6661 2.96201 14.5616C2.5434 14.4571 2.28879 14.033 2.39334 13.6144C3.54239 9.01333 7.69222 5.72925 12.5001 5.72925Z" fill="#373737"/>
</svg>