<svg xmlns="http://www.w3.org/2000/svg" width="40" height="40" viewBox="0 0 40 40" fill="none">
  <path d="M36.5625 17.168H22.5V3.10547C22.5 1.55297 21.24 0.292969 19.6875 0.292969C18.135 0.292969 16.875 1.55297 16.875 3.10547V17.168H2.8125C1.26 17.168 0 18.428 0 19.9805C0 21.533 1.26 22.793 2.8125 22.793H16.875V36.8555C16.875 38.408 18.135 39.668 19.6875 39.668C21.24 39.668 22.5 38.408 22.5 36.8555V22.793H36.5625C38.115 22.793 39.375 21.533 39.375 19.9805C39.375 18.428 38.115 17.168 36.5625 17.168Z" fill="#F5F5F5"/>
</svg>