<svg xmlns="http://www.w3.org/2000/svg" width="15" height="14" viewBox="0 0 15 14" fill="none">
    <path d="M13.1419 5.65337L8.45451 5.64711L8.46077 0.959703C8.46146 0.442212 8.04202 0.0216595 7.52453 0.0209686C7.00704 0.0202777 6.58649 0.439709 6.5858 0.957199L6.57954 5.64461L1.89213 5.63835C1.37464 5.63766 0.954088 6.05709 0.953397 6.57458C0.952706 7.09207 1.37214 7.51263 1.88963 7.51332L6.57704 7.51958L6.57078 12.207C6.57009 12.7245 6.98952 13.145 7.50701 13.1457C8.0245 13.1464 8.44505 12.727 8.44575 12.2095L8.452 7.52208L13.1394 7.52834C13.6569 7.52903 14.0775 7.1096 14.0781 6.59211C14.0788 6.07462 13.6594 5.65406 13.1419 5.65337Z" fill="#F5F5F5"/>
</svg>