<svg xmlns="http://www.w3.org/2000/svg" width="24" height="23" viewBox="0 0 24 23" fill="none">
  <path fill-rule="evenodd" clip-rule="evenodd" d="M23.5084 8.53498H15.0423L12.0085 0.320801C11.7916 0.320801 11.5993 0.460496 11.5322 0.666831L8.97507 8.53498H0.508981H0.50868C0.28919 8.53498 0.0952746 8.6779 0.0302983 8.88755C-0.034678 9.0972 0.0444268 9.32473 0.225447 9.44886L7.10041 14.1631L4.44927 22.0183C4.37959 22.2248 4.4514 22.4526 4.62688 22.5818C4.71534 22.6469 4.81992 22.6795 4.92449 22.6793C5.02744 22.6792 5.1304 22.6475 5.21798 22.584L12.0087 17.6632L18.7994 22.584C18.887 22.6475 18.9899 22.6792 19.0929 22.6793C19.1974 22.6795 19.302 22.6469 19.3905 22.5818C19.566 22.4526 19.6378 22.2248 19.5681 22.0183L16.917 14.1631L23.7919 9.44886C23.9729 9.32473 24.052 9.0972 23.9871 8.88755C23.9221 8.6779 23.7282 8.53498 23.5087 8.53498H23.5084ZM12.0085 2.44291L12.0087 2.44245L12.0088 2.44291V16.5438C12.0087 16.5438 12.0086 16.5438 12.0085 16.5438V2.44291Z" fill="#373737"/>
</svg>