<svg xmlns="http://www.w3.org/2000/svg" width="40" height="40" viewBox="0 0 40 40" fill="none">
  <path d="M36.3665 17.9L27.8331 24.0833L31.1665 34.0833C31.2748 34.4196 31.2735 34.7817 31.1627 35.1172C31.0518 35.4528 30.8372 35.7444 30.5498 35.95C30.2659 36.1547 29.9248 36.2649 29.5748 36.2649C29.2248 36.2649 28.8837 36.1547 28.5998 35.95L19.9998 29.7833L11.4665 35.9833C11.1826 36.1881 10.8415 36.2983 10.4915 36.2983C10.1415 36.2983 9.80035 36.1881 9.51648 35.9833C9.22908 35.7777 9.01447 35.4861 8.90362 35.1506C8.79278 34.8151 8.79144 34.453 8.89981 34.1166L12.2331 24.1166L3.63315 17.9C3.34744 17.6931 3.13473 17.401 3.02561 17.0656C2.91649 16.7302 2.9166 16.3688 3.02591 16.0334C3.13522 15.6981 3.34811 15.4061 3.63393 15.1994C3.91975 14.9927 4.26377 14.882 4.61648 14.8833H15.1498L18.4831 4.88331C18.5927 4.54986 18.8048 4.25953 19.0891 4.0537C19.3734 3.84787 19.7155 3.73706 20.0665 3.73706C20.4175 3.73706 20.7595 3.84787 21.0438 4.0537C21.3281 4.25953 21.5402 4.54986 21.6498 4.88331L24.9831 14.8833H35.5165C35.8692 14.882 36.2132 14.9927 36.499 15.1994C36.7849 15.4061 36.9977 15.6981 37.1071 16.0334C37.2164 16.3688 37.2165 16.7302 37.1073 17.0656C36.9982 17.401 36.7855 17.6931 36.4998 17.9H36.3665Z" fill="#373737"/>
</svg>