<svg xmlns="http://www.w3.org/2000/svg" width="24" height="23" viewBox="0 0 24 23" fill="none">
  <path fill-rule="evenodd" clip-rule="evenodd" d="M23.5006 8.53498H15.0369L12.0007 0.320801C11.7838 0.320801 11.5915 0.460496 11.5244 0.666831L8.96726 8.53498H0.503571H0.500868C0.281378 8.53498 0.0874621 8.6779 0.0224858 8.88755C-0.0424905 9.0972 0.0366143 9.32473 0.217634 9.44886L7.09259 14.1631L4.44146 22.0183C4.37177 22.2248 4.44359 22.4526 4.61906 22.5818C4.70787 22.6472 4.81291 22.6797 4.91788 22.6793C5.02123 22.6795 5.12465 22.6478 5.21257 22.584L12.0021 17.6641L18.7916 22.584C18.8795 22.6478 18.9829 22.6795 19.0863 22.6793C19.1912 22.6797 19.2963 22.6472 19.3851 22.5818C19.5606 22.4526 19.6324 22.2248 19.5627 22.0183L16.9115 14.1631L23.7865 9.44886C23.9675 9.32473 24.0466 9.0972 23.9817 8.88755C23.9167 8.6779 23.7228 8.53498 23.5033 8.53498H23.5006ZM12.0007 2.45031L12.0021 2.44615L12.0034 2.45031V16.5438C12.003 16.5438 12.0025 16.5438 12.0021 16.5438L12.0007 16.5438V2.45031Z" fill="#D1BD03"/>
</svg>