<svg xmlns="http://www.w3.org/2000/svg" width="35" height="35" viewBox="0 0 35 35" fill="none">
    <path d="M32.3923 17.595C32.3928 20.5221 31.5253 23.3835 29.8994 25.8175C28.2735 28.2514 25.9623 30.1484 23.2581 31.2686C20.5539 32.3888 17.5782 32.6819 14.7075 32.1107C11.8367 31.5395 9.19985 30.1297 7.13042 28.0597C5.75217 26.6885 4.65958 25.0576 3.9159 23.2614C3.17222 21.4651 2.79223 19.5392 2.79791 17.595H4.7922C4.7922 24.6543 10.5358 30.3979 17.5951 30.3979C24.6544 30.3979 30.398 24.6543 30.398 17.595C30.398 10.5357 24.6544 4.79214 17.5951 4.79214C15.8551 4.79211 14.1335 5.14727 12.5356 5.83585C10.9377 6.52443 9.49713 7.53195 8.3022 8.79671H12.1961V10.791H5.19746V3.79766H7.19241V7.0837C9.26698 5.02981 11.9029 3.63569 14.7682 3.07688C17.6335 2.51808 20.6001 2.81958 23.2944 3.94343C25.9887 5.06727 28.2903 6.96321 29.9092 9.39248C31.5281 11.8217 32.3921 14.6757 32.3923 17.595ZM17.1952 9.79652V19.1947H25.3936V17.1951H19.1948V9.79652H17.1952Z" fill="#F5F5F5"/>
</svg>