<svg xmlns="http://www.w3.org/2000/svg" width="34" height="33" viewBox="0 0 34 33" fill="none">
    <mask id="path-1-outside-1_193_107" maskUnits="userSpaceOnUse" x="0" y="0" width="34" height="33" fill="black">
    <rect fill="white" width="34" height="33"/>
    <path d="M1 0H29.8754C32.0342 0 33.7843 1.7501 33.7843 3.90896V28.8754C33.7843 31.0342 32.0342 32.7843 29.8754 32.7843H1V0Z"/>
    </mask>
    <path d="M1 0H29.8754C32.0342 0 33.7843 1.7501 33.7843 3.90896V28.8754C33.7843 31.0342 32.0342 32.7843 29.8754 32.7843H1V0Z" fill="#64C0D5"/>
    <path d="M1 0H33.7843H1ZM33.7843 32.7843H1H33.7843ZM0.0473958 32.7843V0H1.9526V32.7843H0.0473958ZM33.7843 0V32.7843V0Z" fill="#F5F5F5" mask="url(#path-1-outside-1_193_107)"/>
    <path d="M26.3428 24.6399L21.6129 19.91C22.5629 18.6413 23.1324 17.0714 23.1324 15.3646C23.1324 11.1673 19.7298 7.76465 15.5324 7.76465C11.335 7.76465 7.93237 11.1673 7.93237 15.3646C7.93237 19.562 11.335 22.9647 15.5324 22.9647C17.2391 22.9647 18.8091 22.3952 20.0777 21.4452L24.8076 26.1751L26.3428 24.6399ZM10.1038 15.3646C10.1038 12.3713 12.5391 9.93608 15.5324 9.93608C18.5257 9.93608 20.961 12.3713 20.961 15.3646C20.961 18.358 18.5257 20.7932 15.5324 20.7932C12.5391 20.7932 10.1038 18.358 10.1038 15.3646Z" fill="#F5F5F5"/>
</svg>