<svg xmlns="http://www.w3.org/2000/svg" width="20" height="20" viewBox="0 0 20 20" fill="none">
    <path d="M19.3428 17.6399L14.6129 12.91C15.5629 11.6413 16.1324 10.0714 16.1324 8.36465C16.1324 4.16728 12.7298 0.764648 8.53238 0.764648C4.33501 0.764648 0.932373 4.16728 0.932373 8.36465C0.932373 12.562 4.33501 15.9647 8.53238 15.9647C10.2391 15.9647 11.8091 15.3952 13.0777 14.4452L17.8076 19.1751L19.3428 17.6399ZM3.1038 8.36465C3.1038 5.37134 5.53906 2.93608 8.53238 2.93608C11.5257 2.93608 13.961 5.37134 13.961 8.36465C13.961 11.358 11.5257 13.7932 8.53238 13.7932C5.53906 13.7932 3.1038 11.358 3.1038 8.36465Z" fill="#F5F5F5"/>
</svg>