<svg xmlns="http://www.w3.org/2000/svg" width="31" height="31" viewBox="0 0 31 31" fill="none">
  <path d="M17.6479 27.2424C17.4776 27.2423 17.3108 27.1944 17.1665 27.104C17.0222 27.0136 16.9062 26.8845 16.8317 26.7314L12.5632 17.9564L3.7881 13.6884C3.63002 13.6114 3.49772 13.4901 3.40724 13.3393C3.31677 13.1885 3.27202 13.0147 3.27844 12.8389C3.28485 12.6632 3.34214 12.4931 3.44336 12.3493C3.54458 12.2055 3.68537 12.0941 3.84864 12.0288L26.3666 2.97161C26.5319 2.90501 26.713 2.88848 26.8876 2.92407C27.0621 2.95966 27.2224 3.0458 27.3484 3.17177C27.4743 3.29774 27.5605 3.45797 27.5961 3.63253C27.6316 3.80709 27.6151 3.98826 27.5485 4.15349L18.4907 26.6733C18.425 26.8364 18.3134 26.977 18.1694 27.0779C18.0254 27.1789 17.8551 27.2358 17.6794 27.2418L17.6479 27.2424ZM6.4237 12.9534L13.6397 16.4651C13.8226 16.554 13.9703 16.7018 14.0593 16.8847L17.571 24.1007L25.0661 5.44919L6.4237 12.9534Z" fill="#388D9F"/>
  <path d="M13.2425 18.1853C13.0628 18.1853 12.8873 18.132 12.7379 18.0321C12.5886 17.9323 12.4722 17.7904 12.4035 17.6245C12.3348 17.4585 12.3169 17.2759 12.352 17.0997C12.3871 16.9235 12.4736 16.7617 12.6007 16.6347L26.0633 3.17213C26.1476 3.08781 26.2478 3.02093 26.358 2.97531C26.4682 2.92969 26.5863 2.90622 26.7056 2.90625C26.8249 2.90628 26.943 2.9298 27.0532 2.97547C27.1634 3.02114 27.2635 3.08807 27.3478 3.17243C27.4321 3.25679 27.499 3.35694 27.5446 3.46714C27.5902 3.57735 27.6137 3.69547 27.6137 3.81474C27.6136 3.93402 27.5901 4.05212 27.5444 4.16231C27.4988 4.2725 27.4318 4.37261 27.3475 4.45693L13.8849 17.922C13.7141 18.0914 13.483 18.1861 13.2425 18.1853Z" fill="#388D9F"/>
</svg>