<svg xmlns="http://www.w3.org/2000/svg" width="51" height="50" viewBox="0 0 51 50" fill="none">
    <g filter="url(#filter0_d_93_3345)">
        <path d="M18.6134 38.1724C18.4046 38.1724 18.2005 38.1102 18.0269 37.9937C17.8533 37.8772 17.718 37.7116 17.6381 37.5179C17.5583 37.3243 17.5374 37.1112 17.5782 36.9056C17.619 36.7 17.7196 36.5112 17.8673 36.363L30.1345 24.0488L17.8673 11.7345C17.675 11.5347 17.5686 11.267 17.571 10.9891C17.5734 10.7112 17.6844 10.4454 17.8802 10.2489C18.0759 10.0524 18.3407 9.94093 18.6175 9.93852C18.8944 9.9361 19.161 10.0429 19.3602 10.236L32.3741 23.2998C32.572 23.4986 32.6832 23.7681 32.6832 24.0491C32.6832 24.3301 32.572 24.5997 32.3741 24.7984L19.3602 37.8623C19.2621 37.9607 19.1456 38.0387 19.0175 38.0919C18.8894 38.1451 18.7521 38.1725 18.6134 38.1724Z" fill="#303030"/>
    </g>
    <defs>
        <filter id="filter0_d_93_3345" x="-0.681513" y="0.818789" width="51.604" height="64.7128" filterUnits="userSpaceOnUse" color-interpolation-filters="sRGB">
        <feFlood flood-opacity="0" result="BackgroundImageFix"/>
        <feColorMatrix in="SourceAlpha" type="matrix" values="0 0 0 0 0 0 0 0 0 0 0 0 0 0 0 0 0 0 127 0" result="hardAlpha"/>
        <feOffset dy="9.11969"/>
        <feGaussianBlur stdDeviation="9.11969"/>
        <feComposite in2="hardAlpha" operator="out"/>
        <feColorMatrix type="matrix" values="0 0 0 0 0 0 0 0 0 0 0 0 0 0 0 0 0 0 0.1 0"/>
        <feBlend mode="normal" in2="BackgroundImageFix" result="effect1_dropShadow_93_3345"/>
        <feBlend mode="normal" in="SourceGraphic" in2="effect1_dropShadow_93_3345" result="shape"/>
        </filter>
    </defs>
</svg>