<svg xmlns="http://www.w3.org/2000/svg" width="53" height="66" viewBox="0 0 53 66" fill="none">
  <g filter="url(#filter0_d_382_5761)">
    <path d="M33.0697 10C33.2785 10.0001 33.4826 10.0623 33.6562 10.1788C33.8298 10.2953 33.9651 10.4609 34.045 10.6545C34.1248 10.8482 34.1457 11.0613 34.1049 11.2669C34.0641 11.4725 33.9635 11.6613 33.8158 11.8095L21.5486 24.1237L33.8158 36.4379C34.0081 36.6378 34.1145 36.9055 34.1121 37.1834C34.1097 37.4613 33.9987 37.7271 33.8029 37.9236C33.6072 38.1201 33.3424 38.2316 33.0656 38.234C32.7887 38.2364 32.5221 38.1296 32.3229 37.9365L19.309 24.8726C19.1111 24.6739 18.9999 24.4044 18.9999 24.1234C18.9999 23.8423 19.1111 23.5728 19.309 23.3741L32.3229 10.3102C32.421 10.2118 32.5375 10.1338 32.6656 10.0806C32.7937 10.0273 32.931 9.99998 33.0697 10Z" fill="#303030"/>
  </g>
  <defs>
    <filter id="filter0_d_382_5761" x="0.760626" y="0.880313" width="51.604" height="64.7128" filterUnits="userSpaceOnUse" color-interpolation-filters="sRGB">
      <feFlood flood-opacity="0" result="BackgroundImageFix"/>
      <feColorMatrix in="SourceAlpha" type="matrix" values="0 0 0 0 0 0 0 0 0 0 0 0 0 0 0 0 0 0 127 0" result="hardAlpha"/>
      <feOffset dy="9.11969"/>
      <feGaussianBlur stdDeviation="9.11969"/>
      <feComposite in2="hardAlpha" operator="out"/>
      <feColorMatrix type="matrix" values="0 0 0 0 0 0 0 0 0 0 0 0 0 0 0 0 0 0 0.1 0"/>
      <feBlend mode="normal" in2="BackgroundImageFix" result="effect1_dropShadow_382_5761"/>
      <feBlend mode="normal" in="SourceGraphic" in2="effect1_dropShadow_382_5761" result="shape"/>
    </filter>
  </defs>
</svg>