<svg xmlns="http://www.w3.org/2000/svg" width="39" height="46" viewBox="0 0 39 46" fill="none">
    <g filter="url(#filter0_d_271_2847)">
        <path d="M26.2699 6.09206C26.4787 6.0921 26.6828 6.15431 26.8564 6.27081C27.03 6.38731 27.1653 6.55287 27.2452 6.74655C27.325 6.94024 27.3459 7.15334 27.3051 7.35892C27.2643 7.5645 27.1637 7.75332 27.016 7.90149L14.7488 20.2157L27.016 32.5299C27.2083 32.7298 27.3147 32.9975 27.3123 33.2754C27.3099 33.5533 27.1989 33.8191 27.0031 34.0156C26.8074 34.2121 26.5426 34.3235 26.2658 34.3259C25.9889 34.3284 25.7223 34.2215 25.5231 34.0285L12.5092 20.9646C12.3113 20.7659 12.2001 20.4964 12.2001 20.2154C12.2001 19.9343 12.3113 19.6648 12.5092 19.4661L25.5231 6.40223C25.6212 6.30383 25.7377 6.22579 25.8658 6.17257C25.9939 6.11935 26.1312 6.09199 26.2699 6.09206Z" fill="#303030"/>
    </g>
    <defs>
        <filter id="filter0_d_271_2847" x="0.901703" y="0.442856" width="37.7221" height="50.8307" filterUnits="userSpaceOnUse" color-interpolation-filters="sRGB">
        <feFlood flood-opacity="0" result="BackgroundImageFix"/>
        <feColorMatrix in="SourceAlpha" type="matrix" values="0 0 0 0 0 0 0 0 0 0 0 0 0 0 0 0 0 0 127 0" result="hardAlpha"/>
        <feOffset dy="5.64919"/>
        <feGaussianBlur stdDeviation="5.64919"/>
        <feComposite in2="hardAlpha" operator="out"/>
        <feColorMatrix type="matrix" values="0 0 0 0 0 0 0 0 0 0 0 0 0 0 0 0 0 0 0.1 0"/>
        <feBlend mode="normal" in2="BackgroundImageFix" result="effect1_dropShadow_271_2847"/>
        <feBlend mode="normal" in="SourceGraphic" in2="effect1_dropShadow_271_2847" result="shape"/>
        </filter>
    </defs>
</svg>