<svg xmlns="http://www.w3.org/2000/svg" width="5" height="5" viewBox="0 0 5 5" fill="none">
    <path fill-rule="evenodd" clip-rule="evenodd" d="M4.62129 1.91397H3.13526L2.54543 0.431213C2.4812 0.431213 2.42427 0.472571 2.40442 0.533659L1.95582 1.91397H0.469786H0.469576C0.404594 1.91397 0.347183 1.95628 0.327946 2.01835C0.308709 2.08042 0.332129 2.14778 0.385722 2.18453L1.59063 3.01075L1.12607 4.38724C1.10544 4.44836 1.1267 4.51581 1.17865 4.55406C1.20506 4.5735 1.23632 4.58313 1.26754 4.58292C1.2978 4.58277 1.32803 4.57337 1.35377 4.55472L2.54554 3.69112L3.7373 4.55472C3.76304 4.57337 3.79327 4.58277 3.82353 4.58292C3.85475 4.58313 3.88601 4.5735 3.91243 4.55406C3.96438 4.51581 3.98564 4.44836 3.96501 4.38724L3.50045 3.01075L4.70535 2.18453C4.75895 2.14778 4.78237 2.08042 4.76313 2.01835C4.74389 1.95628 4.68648 1.91397 4.6215 1.91397H4.62129ZM2.54543 1.05986L2.54554 1.05953L2.54543 3.35965V1.05986ZM2.54564 1.05979L2.54554 1.05953L2.54564 1.05986V1.05979ZM2.54564 3.3592V3.35965C2.54558 3.35965 2.54552 3.35965 2.54545 3.35965L2.54564 3.3592Z" fill="#D1BD03"/>
</svg>