<svg xmlns="http://www.w3.org/2000/svg" width="15" height="18" viewBox="0 0 15 18" fill="none">
    <path d="M7.90181 0.510742H10.6871C10.717 0.6324 10.7403 0.755602 10.7568 0.879796C10.8417 1.84844 11.2848 2.7506 11.9995 3.40992C12.7141 4.06924 13.649 4.43831 14.6214 4.445V7.07015C14.4911 7.11251 14.3544 7.13137 14.2175 7.12586C13.5696 7.0543 12.9275 6.93797 12.2956 6.7777C11.7503 6.56785 11.2199 6.32125 10.708 6.03959V6.38775C10.708 7.78041 10.708 9.21485 10.708 10.6284C10.715 11.2037 10.6777 11.7787 10.5966 12.3483C10.4745 13.2991 10.1108 14.2028 9.54034 14.9731C8.96987 15.7435 8.21159 16.3549 7.33778 16.7491C6.82429 16.938 6.2985 17.0915 5.76408 17.2087H4.79618C4.75563 17.1895 4.71374 17.1732 4.67085 17.16C3.68984 17.0352 2.76832 16.6207 2.0241 15.9695C1.27987 15.3183 0.746745 14.46 0.492876 13.5042C0.375995 13.0883 0.287588 12.6649 0.228271 12.2369V11.4222C0.304868 11.0392 0.360574 10.6562 0.471987 10.2802C0.785813 9.27616 1.39214 8.38859 2.21334 7.73113C3.03455 7.07367 4.03328 6.67623 5.08168 6.58969C5.39503 6.54094 5.70838 6.52702 6.04261 6.49917C6.04261 7.40439 6.04261 8.23999 6.04261 9.08254C6.04261 9.28448 5.93816 9.31233 5.77104 9.36107C5.23716 9.48346 4.71339 9.64641 4.20431 9.8485C3.81222 9.99625 3.47534 10.2615 3.23977 10.608C3.0042 10.9545 2.88142 11.3654 2.88825 11.7843C2.85871 12.2594 2.96976 12.7327 3.20753 13.145C3.44529 13.5574 3.79924 13.8906 4.2252 14.1031C4.61471 14.3439 5.06714 14.4633 5.52478 14.4459C5.98242 14.4286 6.42451 14.2753 6.79465 14.0056C7.07179 13.8072 7.30423 13.5528 7.47695 13.2589C7.64966 12.9651 7.75882 12.6383 7.79736 12.2996C7.88061 11.6065 7.91551 10.9085 7.90181 10.2106C7.90181 7.1189 7.90181 4.02488 7.90181 0.928539C7.9227 0.78231 7.90877 0.650008 7.90181 0.510742Z" fill="#F5F5F5"/>
</svg>