<svg xmlns="http://www.w3.org/2000/svg" width="22" height="23" viewBox="0 0 22 23" fill="none">
  <path d="M11 11.0043C11.9518 11.0043 12.8823 10.7221 13.6737 10.1933C14.4651 9.66445 15.0819 8.91284 15.4462 8.03347C15.8104 7.1541 15.9057 6.18647 15.72 5.25293C15.5343 4.3194 15.076 3.46189 14.403 2.78885C13.7299 2.11581 12.8724 1.65747 11.9389 1.47178C11.0053 1.28608 10.0377 1.38139 9.15834 1.74563C8.27897 2.10988 7.52736 2.72671 6.99855 3.51812C6.46975 4.30953 6.1875 5.23998 6.1875 6.1918C6.1875 7.46816 6.69453 8.69224 7.59705 9.59476C8.49957 10.4973 9.72365 11.0043 11 11.0043ZM11 2.75431C11.6799 2.75431 12.3445 2.95591 12.9098 3.33363C13.4751 3.71135 13.9157 4.24821 14.1758 4.87633C14.436 5.50445 14.5041 6.19562 14.3714 6.86243C14.2388 7.52924 13.9114 8.14174 13.4307 8.62248C12.9499 9.10323 12.3374 9.43062 11.6706 9.56325C11.0038 9.69589 10.3126 9.62782 9.68453 9.36764C9.0564 9.10746 8.51954 8.66687 8.14182 8.10158C7.76411 7.53628 7.5625 6.87168 7.5625 6.1918C7.5625 5.28012 7.92466 4.40578 8.56932 3.76113C9.21398 3.11647 10.0883 2.75431 11 2.75431Z" fill="#373737"/>
  <path d="M11.6875 12.3793H10.3125C8.3068 12.3793 6.38325 13.1761 4.96501 14.5943C3.54676 16.0126 2.75 17.9361 2.75 19.9418C2.75 20.1241 2.82243 20.299 2.95136 20.4279C3.0803 20.5569 3.25516 20.6293 3.4375 20.6293H18.5625C18.7448 20.6293 18.9197 20.5569 19.0486 20.4279C19.1776 20.299 19.25 20.1241 19.25 19.9418C19.25 17.9361 18.4532 16.0126 17.035 14.5943C15.6168 13.1761 13.6932 12.3793 11.6875 12.3793ZM4.16625 19.2543C4.3353 17.7422 5.05554 16.3455 6.18934 15.3309C7.32315 14.3163 8.79102 13.755 10.3125 13.7543H11.6875C13.209 13.755 14.6769 14.3163 15.8107 15.3309C16.9445 16.3455 17.6647 17.7422 17.8338 19.2543H4.16625Z" fill="#373737"/>
</svg>